<?xml version="1.0" encoding="UTF-8" ?>
<!DOCTYPE svg PUBLIC "-//W3C//DTD SVG 1.1//EN" "http://www.w3.org/Graphics/SVG/1.1/DTD/svg11.dtd">
<svg width="1000pt" height="1000pt" viewBox="0 0 1000 1000" version="1.1" xmlns="http://www.w3.org/2000/svg">
<g id="#1cc2ffff">
</g>
<g id="#ffffffff">
<path fill="#ffffff" opacity="1.00" d=" M 459.94 68.91 C 466.75 62.37 476.90 59.90 486.01 62.25 C 494.82 60.03 504.76 62.15 511.50 68.36 C 567.69 120.88 623.82 173.48 680.03 225.98 C 680.04 197.06 680.05 168.15 680.02 139.23 C 680.00 136.55 680.15 133.85 679.92 131.17 C 677.55 130.57 675.14 130.14 672.77 129.60 C 667.55 126.99 662.66 123.36 659.74 118.21 C 654.64 109.78 654.69 98.43 660.20 90.20 C 664.95 82.51 673.99 77.87 682.97 78.00 C 701.32 78.02 719.67 77.96 738.02 78.03 C 748.29 78.22 757.88 84.97 761.80 94.44 C 765.16 103.17 764.03 113.64 758.09 121.01 C 753.70 126.81 746.81 130.05 739.76 131.19 C 739.41 179.79 739.75 228.42 739.60 277.03 C 739.63 278.64 739.46 280.30 739.87 281.90 C 744.35 286.35 749.11 290.53 753.66 294.92 C 757.72 298.67 761.73 302.47 765.80 306.21 C 795.35 333.98 825.04 361.61 854.61 389.37 C 856.41 391.33 858.06 393.47 859.68 395.59 C 861.31 401.20 862.97 407.07 861.73 412.95 C 859.71 425.61 847.89 435.99 834.97 435.76 C 828.87 436.12 823.33 433.46 818.05 430.79 C 810.43 424.60 803.62 417.31 796.25 410.78 C 762.82 379.54 729.48 348.17 695.95 317.06 C 691.15 311.85 685.41 307.64 680.53 302.53 C 624.75 250.23 568.75 198.13 513.07 145.75 C 509.09 141.51 504.51 137.85 500.56 133.57 C 495.89 128.85 491.04 124.29 486.03 119.94 C 376.22 222.77 266.76 326.00 157.03 428.93 C 149.36 436.03 137.66 437.55 128.10 433.69 C 121.68 430.58 116.01 425.39 113.38 418.66 C 109.87 410.14 111.04 399.84 116.48 392.40 C 118.61 389.27 121.65 386.94 124.33 384.31 C 236.19 279.17 348.07 174.05 459.94 68.91 Z" />
<path fill="#ffffff" opacity="1.00" d=" M 505.44 272.93 C 505.04 267.79 509.83 262.96 514.98 263.38 C 529.01 263.38 543.05 263.37 557.08 263.38 C 560.56 263.21 563.94 265.46 565.43 268.56 C 566.84 271.28 566.26 274.45 566.39 277.39 C 566.33 290.92 566.50 304.46 566.32 317.99 C 566.27 322.81 561.83 326.94 557.04 326.77 C 544.49 326.83 531.94 326.76 519.39 326.79 C 516.39 326.59 513.09 327.38 510.39 325.70 C 507.19 324.17 505.17 320.55 505.44 317.03 C 505.44 302.33 505.44 287.63 505.44 272.93 Z" />
<path fill="#ffffff" opacity="1.00" d=" M 413.16 272.98 C 413.04 268.19 417.23 263.75 422.04 263.74 C 436.35 263.70 450.66 263.72 464.97 263.73 C 468.35 263.66 471.63 265.79 473.11 268.81 C 474.64 271.51 473.88 274.72 474.11 277.67 C 474.01 291.14 474.14 304.61 474.05 318.07 C 474.21 322.90 469.80 327.24 465.00 327.10 C 452.35 327.18 439.70 327.09 427.06 327.13 C 424.07 326.95 420.81 327.71 418.11 326.08 C 415.16 324.59 413.16 321.39 413.17 318.08 C 413.13 303.05 413.15 288.01 413.16 272.98 Z" />
<path fill="#ffffff" opacity="1.00" d=" M 413.18 371.97 C 413.31 367.40 417.38 363.30 421.96 363.24 C 436.32 363.20 450.68 363.22 465.04 363.23 C 469.38 363.16 473.35 366.72 474.01 370.97 C 474.13 373.06 474.05 375.15 474.08 377.24 C 474.03 390.83 474.16 404.41 474.02 418.00 C 473.99 422.65 469.66 426.69 465.05 426.61 C 452.39 426.67 439.72 426.61 427.06 426.63 C 424.14 426.43 420.96 427.22 418.29 425.67 C 415.07 424.13 412.98 420.60 413.16 417.03 C 413.16 402.01 413.11 386.99 413.18 371.97 Z" />
<path fill="#ffffff" opacity="1.00" d=" M 505.45 371.97 C 505.51 367.14 510.10 362.92 514.91 363.22 C 528.96 363.22 543.00 363.21 557.05 363.23 C 560.56 363.10 563.99 365.33 565.46 368.50 C 566.85 371.20 566.26 374.33 566.39 377.24 C 566.37 390.47 566.43 403.71 566.38 416.94 C 566.73 422.06 562.17 426.89 557.01 426.62 C 544.47 426.66 531.93 426.61 519.40 426.63 C 516.39 426.41 513.08 427.27 510.38 425.58 C 507.27 424.02 505.19 420.55 505.44 417.06 C 505.45 402.03 505.42 387.00 505.45 371.97 Z" />
<path fill="#ffffff" opacity="1.00" d=" M 233.57 465.09 C 233.74 449.72 247.63 436.17 263.00 436.47 C 274.76 435.98 285.78 443.57 290.81 454.00 C 292.14 457.86 293.23 461.86 293.11 465.98 C 293.12 491.34 293.12 516.69 293.11 542.05 C 293.17 545.44 292.44 548.77 291.35 551.97 C 272.70 551.98 254.03 552.11 235.39 551.91 C 234.12 548.43 233.49 544.74 233.53 541.05 C 233.55 515.73 233.47 490.41 233.57 465.09 Z" />
<path fill="#ffffff" opacity="1.00" d=" M 680.06 464.92 C 680.24 449.77 693.88 436.50 708.97 436.47 C 720.63 435.84 731.94 443.07 736.94 453.51 C 738.58 457.46 739.68 461.69 739.61 466.01 C 739.63 491.35 739.63 516.70 739.61 542.05 C 739.68 545.42 738.85 548.70 738.01 551.93 C 719.33 552.07 700.65 551.99 681.98 551.97 C 680.56 548.50 680.02 544.73 680.04 541.00 C 680.05 515.64 680.01 490.28 680.06 464.92 Z" />
<path fill="#ffffff" opacity="1.00" d=" M 427.68 547.82 C 460.48 530.03 500.57 526.21 536.01 538.03 C 555.18 544.26 572.88 554.66 588.09 567.85 C 596.23 574.84 603.52 582.84 610.76 590.69 C 611.49 592.38 612.49 593.94 613.64 595.40 C 624.44 609.68 633.15 625.51 639.79 642.13 C 639.92 642.47 640.18 643.15 640.31 643.49 C 641.78 647.28 643.28 651.07 644.47 654.96 C 622.28 654.98 600.09 654.98 577.90 654.95 C 574.42 648.68 571.23 641.96 567.09 635.96 C 556.24 619.67 541.50 605.49 523.42 597.56 C 510.08 591.48 494.99 589.49 480.51 591.66 C 464.28 594.18 449.16 602.04 436.92 612.89 C 423.94 624.39 413.78 638.91 406.62 654.66 L 406.10 654.95 C 384.96 654.99 363.82 654.95 342.68 654.98 L 342.20 654.59 C 344.36 648.44 346.71 642.36 349.19 636.34 C 349.65 636.25 350.58 636.05 351.05 635.96 C 351.21 634.44 350.72 632.79 351.50 631.40 C 367.56 596.72 393.60 565.83 427.68 547.82 Z" />
<path fill="#ffffff" opacity="1.00" d=" M 686.59 672.36 C 702.51 640.93 737.01 620.74 771.98 620.26 C 800.96 619.38 830.19 631.77 849.34 653.60 C 851.18 656.09 853.73 658.02 855.55 660.47 C 857.56 665.24 860.91 669.30 863.00 674.04 C 876.41 700.82 875.20 734.22 859.90 759.96 C 845.58 784.99 819.25 802.14 790.93 806.66 C 768.44 810.54 744.73 806.24 724.82 795.16 C 721.13 793.20 717.85 790.56 714.09 788.75 C 709.13 784.23 703.86 779.82 699.40 774.72 C 696.13 770.85 693.07 766.81 690.35 762.54 C 687.50 758.12 685.43 753.29 683.03 748.63 C 680.79 748.41 678.55 748.51 676.32 748.62 C 633.87 748.94 591.43 748.57 548.98 748.50 C 535.17 747.74 523.33 734.90 523.92 721.04 C 523.44 707.24 535.31 694.50 549.04 693.79 C 588.71 693.62 628.37 693.36 668.05 693.60 C 687.22 693.41 706.41 693.71 725.59 693.39 C 725.76 693.94 726.10 695.04 726.28 695.59 C 729.42 696.97 732.50 698.69 734.95 701.14 C 735.04 713.86 734.98 726.59 734.98 739.32 C 735.18 739.67 735.59 740.36 735.80 740.70 C 734.31 741.69 732.96 742.87 731.58 744.00 C 745.81 762.38 772.94 768.58 793.96 758.91 C 806.93 753.30 817.45 742.02 821.66 728.47 C 824.76 718.17 824.32 706.77 820.13 696.84 C 815.75 686.40 807.58 677.71 797.66 672.32 C 786.39 666.48 773.04 664.41 760.64 667.42 C 755.89 668.45 751.39 670.32 747.00 672.34 C 726.86 672.42 706.73 672.36 686.59 672.36 Z" />
<path fill="#ffffff" opacity="1.00" d=" M 192.01 624.91 C 208.26 622.21 225.25 622.85 241.00 627.89 C 264.25 635.06 284.70 651.10 296.63 672.37 C 275.44 672.30 254.23 672.53 233.05 672.26 C 222.08 666.55 209.09 664.35 197.00 667.45 C 184.10 670.34 172.59 678.68 165.81 690.02 C 159.76 699.72 157.67 711.66 159.56 722.89 C 161.54 734.86 168.46 745.79 178.07 753.13 C 189.23 761.73 204.16 765.29 217.99 762.54 C 229.55 760.46 240.15 754.01 247.59 744.95 C 247.00 744.57 245.82 743.82 245.24 743.44 C 245.63 728.57 245.08 713.62 245.52 698.76 C 248.34 696.69 251.65 695.52 254.75 693.98 C 281.18 694.02 307.61 693.99 334.04 694.00 C 339.63 693.18 345.31 693.61 350.95 693.51 C 380.96 693.38 410.95 693.86 440.96 693.73 C 450.31 693.44 459.36 698.78 464.27 706.62 C 468.21 712.92 469.32 720.81 467.55 728.00 C 464.75 739.42 453.90 748.44 442.06 748.52 C 399.16 748.47 356.27 748.97 313.37 748.64 C 309.91 748.52 306.44 748.34 303.00 748.68 C 297.75 761.80 290.02 773.99 279.71 783.71 C 266.29 796.51 249.15 805.28 231.03 809.08 C 209.01 813.57 185.45 810.70 165.37 800.48 C 159.67 797.76 154.51 794.09 149.16 790.76 C 137.43 780.98 127.17 769.13 120.91 755.07 C 112.74 737.54 110.56 717.35 114.55 698.44 C 118.16 681.36 126.82 665.44 139.04 652.99 C 153.12 638.32 172.08 628.64 192.01 624.91 Z" />
<path fill="#ffffff" opacity="1.00" d=" M 339.90 792.55 C 360.96 792.51 382.02 792.51 403.08 792.55 C 410.15 810.14 420.28 826.73 434.12 839.81 C 446.37 851.51 461.77 860.20 478.49 863.35 C 495.16 866.59 512.71 863.49 527.70 855.69 C 552.98 842.74 570.65 818.49 580.97 792.56 C 602.88 792.50 624.79 792.52 646.70 792.55 C 638.06 822.51 622.88 850.74 601.68 873.69 C 583.46 893.24 560.65 908.86 535.11 917.05 C 499.79 928.51 459.89 924.65 427.39 906.72 C 420.76 903.11 414.34 899.09 408.31 894.56 C 406.89 893.45 405.37 892.47 403.71 891.81 C 403.48 891.69 403.01 891.46 402.78 891.34 C 396.04 884.38 388.62 878.08 382.29 870.72 C 362.44 848.34 348.27 821.21 339.90 792.55 Z" />
</g>
<g id="#b0eaffff">
<path fill="#b0eaff" opacity="1.00" d=" M 761.80 94.44 C 768.08 96.61 772.77 102.23 775.65 108.09 C 778.84 116.51 778.20 126.50 772.77 133.88 C 768.44 140.28 761.15 143.83 753.70 145.14 C 753.38 168.73 753.66 192.34 753.56 215.94 C 753.63 242.26 753.44 268.60 753.66 294.92 C 749.11 290.53 744.35 286.35 739.87 281.90 C 739.46 280.30 739.63 278.64 739.60 277.03 C 739.75 228.42 739.41 179.79 739.76 131.19 C 746.81 130.05 753.70 126.81 758.09 121.01 C 764.03 113.64 765.16 103.17 761.80 94.44 Z" />
<path fill="#b0eaff" opacity="1.00" d=" M 157.03 428.93 C 266.76 326.00 376.22 222.77 486.03 119.94 C 491.04 124.29 495.89 128.85 500.56 133.57 C 492.57 140.20 485.32 147.70 477.66 154.70 C 375.57 250.58 273.52 346.52 171.42 442.39 C 163.47 450.06 150.85 451.75 140.95 447.04 C 135.56 444.02 130.13 439.67 128.10 433.69 C 137.66 437.55 149.36 436.03 157.03 428.93 Z" />
<path fill="#b0eaff" opacity="1.00" d=" M 672.77 129.60 C 675.14 130.14 677.55 130.57 679.92 131.17 C 680.15 133.85 680.00 136.55 680.02 139.23 C 676.95 136.72 673.57 133.51 672.77 129.60 Z" />
<path fill="#b0eaff" opacity="1.00" d=" M 566.39 277.39 C 569.87 277.39 573.79 276.79 576.66 279.27 C 580.15 281.65 580.55 286.16 580.31 290.02 C 580.21 304.00 580.39 317.99 580.23 331.96 C 580.29 336.82 575.66 340.68 571.00 340.74 C 557.98 340.87 544.96 340.73 531.95 340.80 C 528.22 341.10 524.12 340.46 521.56 337.47 C 518.75 334.62 519.43 330.40 519.39 326.79 C 531.94 326.76 544.49 326.83 557.04 326.77 C 561.83 326.94 566.27 322.81 566.32 317.99 C 566.50 304.46 566.33 290.92 566.39 277.39 Z" />
<path fill="#b0eaff" opacity="1.00" d=" M 474.11 277.67 C 478.24 277.05 483.23 277.36 485.91 281.05 C 488.13 283.52 488.18 286.93 488.05 290.05 C 487.99 304.05 488.10 318.06 488.00 332.06 C 488.06 336.80 483.78 341.03 479.06 341.01 C 465.85 341.08 452.64 341.02 439.43 341.03 C 435.77 341.41 431.70 340.79 429.27 337.75 C 426.64 334.86 426.93 330.74 427.06 327.13 C 439.70 327.09 452.35 327.18 465.00 327.10 C 469.80 327.24 474.21 322.90 474.05 318.07 C 474.14 304.61 474.01 291.14 474.11 277.67 Z" />
<path fill="#b0eaff" opacity="1.00" d=" M 474.08 377.24 C 477.65 377.18 481.68 376.71 484.59 379.26 C 487.94 381.72 488.32 386.10 488.07 389.91 C 487.95 403.98 488.15 418.04 487.97 432.10 C 487.87 437.10 482.85 440.89 478.05 440.62 C 465.27 440.66 452.50 440.58 439.73 440.65 C 436.30 440.86 432.59 440.54 429.99 438.02 C 426.64 435.25 426.88 430.55 427.06 426.63 C 439.72 426.61 452.39 426.67 465.05 426.61 C 469.66 426.69 473.99 422.65 474.02 418.00 C 474.16 404.41 474.03 390.83 474.08 377.24 Z" />
<path fill="#b0eaff" opacity="1.00" d=" M 566.39 377.24 C 569.92 377.18 573.89 376.72 576.79 379.21 C 580.02 381.57 580.60 385.80 580.27 389.52 C 580.29 403.33 580.31 417.15 580.27 430.97 C 580.71 436.12 576.03 440.61 571.01 440.60 C 558.00 440.69 545.00 440.57 531.99 440.64 C 528.04 441.04 523.66 440.19 521.14 436.85 C 518.75 433.98 519.47 430.06 519.40 426.63 C 531.93 426.61 544.47 426.66 557.01 426.62 C 562.17 426.89 566.73 422.06 566.38 416.94 C 566.43 403.71 566.37 390.47 566.39 377.24 Z" />
<path fill="#b0eaff" opacity="1.00" d=" M 859.68 395.59 C 864.80 399.15 869.43 403.82 873.04 409.00 C 875.23 414.37 876.77 420.20 875.80 426.04 C 874.40 437.31 865.19 446.96 854.08 449.13 C 847.24 450.72 840.16 448.88 834.01 445.83 C 829.20 442.89 825.67 438.29 821.41 434.66 C 820.29 433.38 818.34 432.60 818.05 430.79 C 823.33 433.46 828.87 436.12 834.97 435.76 C 847.89 435.99 859.71 425.61 861.73 412.95 C 862.97 407.07 861.31 401.20 859.68 395.59 Z" />
<path fill="#b0eaff" opacity="1.00" d=" M 290.81 454.00 C 296.76 455.94 301.04 461.48 304.14 466.76 C 305.74 470.65 307.08 474.73 307.04 478.98 C 307.10 503.30 307.02 527.63 307.08 551.95 C 301.84 552.05 296.59 552.01 291.35 551.97 C 292.44 548.77 293.17 545.44 293.11 542.05 C 293.12 516.69 293.12 491.34 293.11 465.98 C 293.23 461.86 292.14 457.86 290.81 454.00 Z" />
<path fill="#b0eaff" opacity="1.00" d=" M 736.94 453.51 C 743.03 456.08 747.65 461.37 750.81 467.08 C 752.26 470.87 753.49 474.83 753.53 478.93 C 753.67 503.25 753.40 527.59 753.67 551.91 C 748.45 552.07 743.22 552.03 738.01 551.93 C 738.85 548.70 739.68 545.42 739.61 542.05 C 739.63 516.70 739.63 491.35 739.61 466.01 C 739.68 461.69 738.58 457.46 736.94 453.51 Z" />
<path fill="#b0eaff" opacity="1.00" d=" M 610.76 590.69 C 611.15 590.91 611.94 591.37 612.33 591.59 C 616.58 595.96 620.88 600.32 624.75 605.02 C 626.94 608.79 629.83 612.10 632.25 615.73 C 638.02 624.17 643.28 633.01 647.59 642.29 C 644.98 642.36 642.38 642.19 639.79 642.13 C 633.15 625.51 624.44 609.68 613.64 595.40 C 612.49 593.94 611.49 592.38 610.76 590.69 Z" />
<path fill="#b0eaff" opacity="1.00" d=" M 855.55 660.47 L 856.88 660.84 C 860.99 665.11 865.16 669.37 868.82 674.02 C 875.75 684.73 881.66 696.29 884.19 708.89 C 890.53 737.21 882.03 768.14 862.41 789.47 C 845.55 808.24 821.13 819.93 795.99 821.68 C 777.01 823.15 757.60 819.23 740.83 810.17 C 736.03 807.72 731.67 804.56 727.10 801.74 C 722.71 797.54 717.30 793.89 714.09 788.75 C 717.85 790.56 721.13 793.20 724.82 795.16 C 744.73 806.24 768.44 810.54 790.93 806.66 C 819.25 802.14 845.58 784.99 859.90 759.96 C 875.20 734.22 876.41 700.82 863.00 674.04 C 860.91 669.30 857.56 665.24 855.55 660.47 Z" />
<path fill="#b0eaff" opacity="1.00" d=" M 303.00 748.68 C 306.44 748.34 309.91 748.52 313.37 748.64 C 313.37 756.24 313.85 763.99 313.13 771.53 C 306.05 784.65 296.52 796.56 284.41 805.36 C 265.55 819.56 241.41 826.32 217.92 824.80 C 198.22 823.62 179.10 816.35 163.25 804.67 C 158.36 800.27 153.00 796.14 149.16 790.76 C 154.51 794.09 159.67 797.76 165.37 800.48 C 185.45 810.70 209.01 813.57 231.03 809.08 C 249.15 805.28 266.29 796.51 279.71 783.71 C 290.02 773.99 297.75 761.80 303.00 748.68 Z" />
<path fill="#b0eaff" opacity="1.00" d=" M 676.32 748.62 C 678.55 748.51 680.79 748.41 683.03 748.63 C 685.43 753.29 687.50 758.12 690.35 762.54 C 685.68 762.53 681.02 762.47 676.36 762.62 C 676.23 757.96 676.30 753.28 676.32 748.62 Z" />
<path fill="#b0eaff" opacity="1.00" d=" M 646.70 792.55 C 652.54 792.52 658.39 792.46 664.24 792.59 C 655.84 829.92 637.98 865.62 610.72 892.75 C 589.78 913.61 563.07 929.10 533.94 934.82 C 500.23 941.80 464.27 934.85 434.94 917.07 C 429.00 913.73 423.75 909.36 417.99 905.78 C 413.94 902.65 410.36 898.96 406.62 895.48 C 405.50 894.38 404.05 893.45 403.71 891.81 C 405.37 892.47 406.89 893.45 408.31 894.56 C 414.34 899.09 420.76 903.11 427.39 906.72 C 459.89 924.65 499.79 928.51 535.11 917.05 C 560.65 908.86 583.46 893.24 601.68 873.69 C 622.88 850.74 638.06 822.51 646.70 792.55 Z" />
</g>
<g id="#60d4ffff">
<path fill="#60d4ff" opacity="1.00" d=" M 775.65 108.09 C 777.85 107.96 779.43 109.73 781.03 110.96 C 789.78 118.28 792.61 131.57 787.83 141.89 C 784.14 150.54 775.47 156.38 766.24 157.49 C 765.82 200.98 766.18 244.50 766.06 288.01 C 765.93 294.07 766.34 300.16 765.80 306.21 C 761.73 302.47 757.72 298.67 753.66 294.92 C 753.44 268.60 753.63 242.26 753.56 215.94 C 753.66 192.34 753.38 168.73 753.70 145.14 C 761.15 143.83 768.44 140.28 772.77 133.88 C 778.20 126.50 778.84 116.51 775.65 108.09 Z" />
<path fill="#60d4ff" opacity="1.00" d=" M 477.66 154.70 C 485.32 147.70 492.57 140.20 500.56 133.57 C 504.51 137.85 509.09 141.51 513.07 145.75 C 403.25 248.70 293.66 351.90 183.90 454.91 C 176.38 462.13 164.56 464.18 154.98 460.14 C 149.07 457.54 143.51 453.09 140.95 447.04 C 150.85 451.75 163.47 450.06 171.42 442.39 C 273.52 346.52 375.57 250.58 477.66 154.70 Z" />
<path fill="#60d4ff" opacity="1.00" d=" M 488.05 290.05 C 493.79 288.77 500.39 292.82 500.51 298.98 C 500.57 313.99 500.52 329.01 500.53 344.02 C 500.87 349.12 496.13 353.83 491.05 353.54 C 476.40 353.44 461.74 353.70 447.10 353.42 C 441.40 352.43 438.75 346.31 439.43 341.03 C 452.64 341.02 465.85 341.08 479.06 341.01 C 483.78 341.03 488.06 336.80 488.00 332.06 C 488.10 318.06 487.99 304.05 488.05 290.05 Z" />
<path fill="#60d4ff" opacity="1.00" d=" M 580.31 290.02 C 586.06 288.48 592.94 292.61 592.74 298.91 C 592.81 313.96 592.80 329.01 592.74 344.06 C 592.90 349.15 588.04 353.56 583.01 353.13 C 568.64 353.08 554.27 353.26 539.90 353.04 C 534.05 352.56 530.77 346.18 531.95 340.80 C 544.96 340.73 557.98 340.87 571.00 340.74 C 575.66 340.68 580.29 336.82 580.23 331.96 C 580.39 317.99 580.21 304.00 580.31 290.02 Z" />
<path fill="#60d4ff" opacity="1.00" d=" M 580.27 389.52 C 583.34 389.71 586.76 389.57 589.26 391.70 C 591.82 393.61 592.98 396.85 592.78 399.98 C 592.75 414.68 592.84 429.38 592.74 444.08 C 592.93 449.20 587.91 453.37 582.97 453.12 C 569.33 453.15 555.68 453.13 542.03 453.13 C 538.33 453.34 534.52 451.36 532.81 448.03 C 531.62 445.77 531.80 443.10 531.99 440.64 C 545.00 440.57 558.00 440.69 571.01 440.60 C 576.03 440.61 580.71 436.12 580.27 430.97 C 580.31 417.15 580.29 403.33 580.27 389.52 Z" />
<path fill="#60d4ff" opacity="1.00" d=" M 488.07 389.91 C 493.59 388.40 500.14 392.13 500.48 398.10 C 500.60 413.40 500.51 428.71 500.52 444.02 C 500.69 449.05 495.90 453.21 491.02 453.11 C 476.99 453.15 462.96 453.16 448.94 453.10 C 442.65 453.23 438.03 446.58 439.73 440.65 C 452.50 440.58 465.27 440.66 478.05 440.62 C 482.85 440.89 487.87 437.10 487.97 432.10 C 488.15 418.04 487.95 403.98 488.07 389.91 Z" />
<path fill="#60d4ff" opacity="1.00" d=" M 873.04 409.00 C 879.54 413.39 885.50 419.50 887.56 427.29 C 889.98 435.82 887.99 445.51 882.20 452.25 C 877.92 457.39 871.74 460.93 865.12 461.90 C 856.48 463.25 847.39 460.06 841.32 453.80 C 838.93 451.12 835.34 449.26 834.01 445.83 C 840.16 448.88 847.24 450.72 854.08 449.13 C 865.19 446.96 874.40 437.31 875.80 426.04 C 876.77 420.20 875.23 414.37 873.04 409.00 Z" />
<path fill="#60d4ff" opacity="1.00" d=" M 304.14 466.76 C 313.86 471.35 319.89 482.32 319.57 492.95 C 319.56 512.57 319.54 532.20 319.58 551.83 C 315.42 552.16 311.24 552.01 307.08 551.95 C 307.02 527.63 307.10 503.30 307.04 478.98 C 307.08 474.73 305.74 470.65 304.14 466.76 Z" />
<path fill="#60d4ff" opacity="1.00" d=" M 750.81 467.08 C 760.26 471.14 765.93 481.92 766.05 491.99 C 766.03 511.97 766.15 531.96 765.98 551.93 C 761.88 552.06 757.77 552.06 753.67 551.91 C 753.40 527.59 753.67 503.25 753.53 478.93 C 753.49 474.83 752.26 470.87 750.81 467.08 Z" />
<path fill="#60d4ff" opacity="1.00" d=" M 624.75 605.02 C 627.11 605.80 628.50 608.02 630.17 609.73 C 638.94 619.75 647.24 630.43 653.29 642.33 C 648.98 642.92 644.49 642.13 640.31 643.49 C 640.18 643.15 639.92 642.47 639.79 642.13 C 642.38 642.19 644.98 642.36 647.59 642.29 C 643.28 633.01 638.02 624.17 632.25 615.73 C 629.83 612.10 626.94 608.79 624.75 605.02 Z" />
<path fill="#60d4ff" opacity="1.00" d=" M 868.82 674.02 C 870.08 674.27 871.08 675.08 871.95 676.01 C 888.86 693.02 899.08 716.84 898.65 740.92 C 898.89 763.80 889.49 786.36 873.95 803.03 C 860.45 817.60 842.33 827.73 822.98 832.07 C 793.45 838.77 761.09 831.47 737.58 812.32 C 733.90 809.03 729.64 806.05 727.10 801.74 C 731.67 804.56 736.03 807.72 740.83 810.17 C 757.60 819.23 777.01 823.15 795.99 821.68 C 821.13 819.93 845.55 808.24 862.41 789.47 C 882.03 768.14 890.53 737.21 884.19 708.89 C 881.66 696.29 875.75 684.73 868.82 674.02 Z" />
<path fill="#60d4ff" opacity="1.00" d=" M 676.36 762.62 C 681.02 762.47 685.68 762.53 690.35 762.54 C 693.07 766.81 696.13 770.85 699.40 774.72 C 693.43 775.50 687.39 774.65 681.41 775.19 C 678.76 804.83 670.37 834.01 656.36 860.29 C 643.70 884.04 626.18 905.39 604.43 921.34 C 582.05 937.90 554.98 948.34 527.10 949.78 C 487.21 952.19 447.47 935.53 419.09 907.84 C 418.82 907.32 418.27 906.29 417.99 905.78 C 423.75 909.36 429.00 913.73 434.94 917.07 C 464.27 934.85 500.23 941.80 533.94 934.82 C 563.07 929.10 589.78 913.61 610.72 892.75 C 637.98 865.62 655.84 829.92 664.24 792.59 C 668.13 792.01 672.67 793.38 676.19 792.00 C 676.49 782.21 676.12 772.41 676.36 762.62 Z" />
<path fill="#60d4ff" opacity="1.00" d=" M 284.41 805.36 C 296.52 796.56 306.05 784.65 313.13 771.53 C 313.96 778.44 313.16 785.46 313.53 792.41 C 315.76 792.59 318.01 792.46 320.24 792.69 C 313.24 804.45 302.94 814.05 291.59 821.60 C 273.19 833.44 250.82 838.94 229.02 837.20 C 207.78 835.54 186.99 827.16 171.00 813.00 C 168.35 810.32 164.87 808.13 163.25 804.67 C 179.10 816.35 198.22 823.62 217.92 824.80 C 241.41 826.32 265.55 819.56 284.41 805.36 Z" />
</g>
</svg>
