<?xml version="1.0" encoding="UTF-8" ?>
<!DOCTYPE svg PUBLIC "-//W3C//DTD SVG 1.1//EN" "http://www.w3.org/Graphics/SVG/1.1/DTD/svg11.dtd">
<svg width="1000pt" height="1000pt" viewBox="0 0 1000 1000" version="1.1" xmlns="http://www.w3.org/2000/svg">
<g id="#1cc2ffff">
<path fill="#1cc2ff" opacity="1.00" d=" M 83.89 466.81 C 91.47 466.68 99.05 466.78 106.63 466.77 C 106.10 471.50 103.95 476.19 99.81 478.81 C 95.25 482.30 89.33 482.49 83.84 482.25 C 83.81 477.10 83.78 471.95 83.89 466.81 Z" />
<path fill="#1cc2ff" opacity="1.00" d=" M 206.65 511.59 C 210.41 506.74 216.49 504.53 222.41 503.84 C 222.15 507.75 221.60 511.88 219.15 515.10 C 215.36 520.11 209.16 523.03 202.93 523.34 C 203.44 519.26 203.93 514.88 206.65 511.59 Z" />
<path fill="#1cc2ff" opacity="1.00" d=" M 323.21 511.21 C 326.99 506.58 332.92 504.57 338.66 503.79 C 338.44 507.81 337.83 512.04 335.26 515.30 C 331.44 520.20 325.31 523.05 319.15 523.34 C 319.74 519.11 320.26 514.54 323.21 511.21 Z" />
</g>
<g id="#2397c1ff">
<path fill="#2397c1" opacity="1.00" d=" M 719.29 407.51 C 725.88 405.36 733.21 405.39 739.89 407.15 C 744.00 408.11 745.86 412.28 746.79 416.00 C 747.39 422.80 748.18 430.89 743.53 436.52 C 737.73 440.84 729.79 439.90 723.00 439.36 C 720.05 438.74 716.84 437.52 715.33 434.72 C 712.57 429.95 713.16 424.22 713.21 418.94 C 713.37 414.57 714.68 409.15 719.29 407.51 Z" />
<path fill="#2397c1" opacity="1.00" d=" M 886.88 406.85 C 893.39 405.04 900.52 405.01 907.00 407.00 C 910.97 408.11 913.25 412.06 913.65 415.97 C 914.59 421.27 913.82 426.64 913.89 431.98 C 913.94 449.36 913.87 466.75 913.93 484.13 C 917.15 481.26 920.29 478.30 923.36 475.27 C 926.48 472.23 929.58 469.16 932.83 466.25 C 937.85 462.39 943.28 457.60 949.98 457.73 C 956.08 459.40 959.82 465.12 963.50 469.87 C 965.15 472.60 967.03 475.72 966.24 479.06 C 965.23 482.92 962.08 485.66 959.24 488.23 C 952.87 493.67 946.46 499.06 940.09 504.48 C 943.52 507.38 947.00 510.22 950.48 513.09 C 953.91 515.93 957.35 518.79 960.81 521.62 C 965.18 525.34 970.15 528.69 973.10 533.77 C 973.65 540.27 969.46 545.83 965.53 550.55 C 962.46 553.87 958.28 557.81 953.35 556.51 C 948.29 554.96 944.07 551.56 939.93 548.38 C 939.15 547.73 938.43 547.04 937.72 546.34 C 933.05 541.77 928.43 537.12 923.65 532.66 C 920.46 529.67 917.28 526.68 913.93 523.88 C 913.79 530.50 914.11 537.12 913.75 543.73 C 913.38 547.66 912.04 552.36 907.95 553.88 C 902.19 556.09 895.81 555.93 889.78 555.15 C 887.30 554.63 884.92 553.57 882.90 552.04 C 881.22 548.98 879.96 545.63 880.05 542.08 C 879.86 528.91 880.17 515.74 879.90 502.57 C 880.16 474.72 879.87 446.87 880.05 419.02 C 880.10 414.26 881.64 408.25 886.88 406.85 Z" />
<path fill="#2397c1" opacity="1.00" d=" M 606.94 414.83 C 613.17 413.25 619.89 413.16 626.10 414.91 C 630.22 415.97 633.14 419.76 633.43 423.96 C 634.08 439.28 633.51 454.65 633.70 469.99 C 633.71 488.99 633.69 507.99 633.71 526.99 C 636.84 527.00 639.98 527.00 643.12 527.00 C 646.27 527.00 649.43 527.00 652.59 527.00 C 663.39 527.00 674.20 527.00 685.00 526.99 C 688.77 527.09 692.78 526.99 696.24 528.73 C 699.20 530.36 700.01 533.95 700.41 537.04 C 700.78 541.67 700.86 546.59 698.96 550.94 C 696.90 554.79 691.96 555.45 688.02 555.61 C 663.99 555.67 639.95 555.57 615.92 555.66 C 613.67 555.63 611.43 555.46 609.23 555.07 C 605.90 554.16 602.33 552.44 600.90 549.09 C 599.43 545.62 599.47 541.76 599.41 538.06 C 599.44 501.36 599.40 464.66 599.43 427.97 C 599.32 422.77 601.20 416.19 606.94 414.83 Z" />
<path fill="#2397c1" opacity="1.00" d=" M 718.67 455.67 C 723.51 453.63 728.96 453.61 734.12 453.96 C 738.14 454.34 742.24 455.59 745.09 458.61 C 745.88 460.31 746.47 462.12 746.84 463.97 C 747.52 468.62 747.07 473.32 747.07 477.99 C 747.05 499.00 747.11 520.01 747.04 541.02 C 747.00 545.81 746.05 552.09 740.89 553.97 C 735.19 556.07 728.89 555.95 722.95 555.13 C 721.59 554.86 720.26 554.51 718.99 554.00 C 716.31 552.49 714.54 549.88 713.76 546.94 C 713.14 544.34 713.19 541.64 713.14 538.99 C 713.18 515.30 713.12 491.62 713.18 467.93 C 713.24 463.44 714.00 457.69 718.67 455.67 Z" />
<path fill="#2397c1" opacity="1.00" d=" M 765.45 457.37 C 768.65 454.02 773.67 453.71 778.03 453.54 C 782.75 453.55 787.88 453.44 792.06 455.97 C 795.17 457.97 795.53 461.98 796.24 465.27 C 802.45 458.82 810.53 453.02 819.94 453.54 C 833.72 453.29 846.64 460.89 854.51 471.95 C 860.80 480.63 864.06 491.32 864.38 501.99 C 864.56 515.01 864.44 528.03 864.44 541.04 C 864.45 545.94 863.28 552.23 857.96 554.00 C 852.27 555.72 846.08 556.05 840.25 554.89 C 837.21 553.97 833.72 552.79 832.20 549.75 C 830.40 546.13 830.44 541.95 830.35 538.01 C 830.37 527.36 830.34 516.72 830.39 506.08 C 830.32 503.22 830.04 500.36 829.43 497.57 C 825.57 486.28 809.05 484.04 801.17 492.23 C 798.06 495.26 796.58 499.62 796.54 503.90 C 796.34 516.58 796.62 529.26 796.42 541.94 C 796.30 546.55 794.79 552.24 789.96 553.98 C 784.30 555.78 778.17 555.90 772.33 555.04 C 770.10 554.51 767.96 553.64 766.00 552.49 C 763.26 548.93 762.47 544.39 762.56 540.00 C 762.57 518.69 762.56 497.37 762.57 476.06 C 762.88 469.84 761.30 462.66 765.45 457.37 Z" />
</g>
<g id="#ffffffff">
<path fill="#ffffff" opacity="1.00" d=" M 34.68 416.60 C 38.17 413.99 42.78 413.91 46.95 413.66 C 60.31 413.56 73.67 413.66 87.03 413.61 C 104.11 413.03 121.35 421.39 131.49 435.12 C 140.60 448.23 142.95 465.34 138.59 480.60 C 136.46 488.49 131.77 495.36 126.28 501.31 C 130.55 511.99 135.43 522.42 139.95 533.01 C 141.37 536.87 143.32 541.32 141.40 545.36 C 139.33 549.59 134.90 551.88 130.85 553.85 C 126.92 555.75 122.61 556.93 118.22 556.78 C 114.36 555.92 111.13 553.01 109.60 549.40 C 107.46 544.69 105.47 539.92 103.41 535.18 C 102.10 532.05 100.78 528.94 99.46 525.83 C 98.13 522.64 96.82 519.45 95.49 516.27 C 85.37 516.63 75.24 516.47 65.11 516.47 C 64.75 525.35 65.25 534.24 64.85 543.12 C 64.63 547.31 62.94 552.08 58.75 553.79 C 53.14 556.03 46.91 555.29 41.04 554.84 C 37.49 554.17 33.58 552.51 32.11 548.94 C 30.73 545.48 30.78 541.67 30.68 538.01 C 30.68 501.69 30.68 465.37 30.69 429.05 C 30.64 424.67 31.29 419.73 34.68 416.60 M 65.02 447.91 C 64.96 459.34 64.97 470.77 65.02 482.20 C 68.13 482.26 71.25 482.26 74.36 482.23 C 77.52 482.26 80.68 482.26 83.84 482.25 C 89.33 482.49 95.25 482.30 99.81 478.81 C 103.95 476.19 106.10 471.50 106.63 466.77 C 106.57 463.96 106.23 461.17 105.58 458.44 L 105.10 458.35 C 103.03 451.66 95.57 447.96 88.93 447.89 C 80.96 447.85 72.99 447.85 65.02 447.91 Z" />
<path fill="#ffffff" opacity="1.00" d=" M 195.07 451.86 C 208.09 449.72 221.97 452.60 232.87 460.10 C 238.48 463.91 243.37 468.73 247.53 474.07 C 254.21 483.99 257.31 496.05 256.49 507.97 C 255.80 524.12 246.65 539.32 233.41 548.37 C 221.11 556.39 205.50 559.36 191.18 555.92 C 184.58 554.44 178.61 551.19 172.85 547.77 C 161.88 539.43 152.87 527.53 150.77 513.64 C 148.63 500.04 151.18 485.36 159.43 474.14 C 167.99 462.70 180.73 453.86 195.07 451.86 M 186.57 494.58 C 181.99 503.30 184.06 517.01 194.36 520.54 C 196.56 522.65 200.07 522.68 202.93 523.34 C 209.16 523.03 215.36 520.11 219.15 515.10 C 221.60 511.88 222.15 507.75 222.41 503.84 C 222.16 501.23 221.73 498.65 220.99 496.15 C 218.98 491.62 214.94 488.33 210.40 486.56 C 201.91 483.14 191.25 486.75 186.57 494.58 Z" />
<path fill="#ffffff" opacity="1.00" d=" M 294.59 457.54 C 312.55 447.46 336.50 449.50 352.47 462.54 C 358.65 467.19 362.98 473.72 368.80 478.75 C 368.17 478.41 366.91 477.72 366.29 477.37 C 370.16 485.73 373.03 494.71 372.84 504.03 C 373.38 520.89 364.74 537.37 351.23 547.27 C 334.71 559.21 311.34 560.72 293.62 550.49 C 293.31 550.71 292.69 551.17 292.38 551.39 C 286.63 545.16 279.41 540.30 274.88 532.96 C 270.41 526.54 267.43 519.01 266.82 511.19 C 266.86 506.74 266.39 502.29 266.70 497.85 C 266.85 496.52 267.04 495.21 267.27 493.91 C 269.92 478.27 280.96 465.11 294.59 457.54 M 313.27 486.36 C 308.08 488.28 303.12 492.04 301.55 497.57 C 299.86 503.63 300.15 510.81 304.16 515.94 C 305.86 518.20 308.42 519.54 310.77 521.02 C 313.41 522.28 316.27 522.91 319.15 523.34 C 325.31 523.05 331.44 520.20 335.26 515.30 C 337.83 512.04 338.44 507.81 338.66 503.79 C 338.43 501.12 337.96 498.48 337.14 495.93 C 333.10 487.36 322.10 483.09 313.27 486.36 Z" />
<path fill="#ffffff" opacity="1.00" d=" M 428.21 457.17 C 436.45 451.49 447.66 452.56 456.33 456.68 C 462.32 459.37 466.49 464.62 470.26 469.80 C 476.64 461.76 485.44 454.71 495.92 453.43 C 508.68 451.95 521.25 459.13 527.84 469.89 C 532.65 479.17 534.52 489.62 534.76 500.00 C 535.02 513.33 534.83 526.67 534.89 540.01 C 534.94 545.07 534.03 551.53 528.85 553.89 C 523.18 556.14 516.88 555.54 510.95 555.08 C 508.20 554.68 505.36 553.61 503.63 551.34 C 501.34 548.07 500.96 543.95 500.96 540.08 C 500.95 529.51 500.95 518.94 500.97 508.37 C 501.00 504.49 500.90 500.58 500.14 496.77 C 499.10 493.34 497.22 489.75 493.64 488.46 C 489.23 486.83 483.26 487.30 480.30 491.36 C 477.80 495.03 477.48 499.66 477.34 503.97 C 477.22 516.64 477.44 529.30 477.26 541.97 C 477.22 546.60 475.64 552.13 470.92 554.00 C 465.22 556.10 458.96 555.57 453.04 555.01 C 450.29 554.63 447.49 553.50 445.78 551.24 C 443.59 547.93 443.17 543.83 443.20 539.96 C 443.18 529.48 443.20 518.99 443.20 508.51 C 443.25 504.55 443.14 500.57 442.34 496.69 C 441.37 493.45 439.64 490.11 436.39 488.68 C 432.06 486.89 426.19 487.21 423.09 491.11 C 420.01 495.00 419.72 500.22 419.59 504.98 C 419.55 516.99 419.66 529.01 419.57 541.03 C 419.46 545.30 418.92 550.47 415.03 553.04 C 409.03 556.52 401.80 555.43 395.21 554.92 C 390.92 554.72 387.07 551.56 386.22 547.32 C 385.57 544.58 385.47 541.75 385.46 538.96 C 385.50 524.90 385.46 510.84 385.49 496.79 C 385.54 486.51 385.36 476.23 385.57 465.96 C 385.66 461.34 387.97 456.15 392.73 454.75 C 398.94 452.96 405.76 453.14 411.95 454.89 C 416.94 456.35 418.57 461.96 419.06 466.56 C 419.22 466.12 419.53 465.22 419.69 464.77 C 422.66 462.38 424.95 459.21 428.21 457.17 Z" />
</g>
<g id="#b0eaffff">
<path fill="#b0eaff" opacity="1.00" d=" M 746.79 416.00 C 749.19 416.65 751.94 417.24 753.46 419.42 C 754.72 421.27 755.55 423.39 756.13 425.55 C 756.49 432.30 757.76 440.38 752.94 445.91 C 747.16 450.17 739.28 449.37 732.54 448.66 C 727.51 448.16 723.86 444.21 723.00 439.36 C 729.79 439.90 737.73 440.84 743.53 436.52 C 748.18 430.89 747.39 422.80 746.79 416.00 Z" />
<path fill="#b0eaff" opacity="1.00" d=" M 913.65 415.97 C 918.44 416.32 922.44 420.10 922.88 424.92 C 923.56 430.26 923.31 435.66 923.34 441.04 C 923.35 452.45 923.32 463.86 923.36 475.27 C 920.29 478.30 917.15 481.26 913.93 484.13 C 913.87 466.75 913.94 449.36 913.89 431.98 C 913.82 426.64 914.59 421.27 913.65 415.97 Z" />
<path fill="#b0eaff" opacity="1.00" d=" M 633.43 423.96 C 638.20 424.48 642.35 428.14 642.68 433.07 C 643.45 439.70 643.03 446.38 643.13 453.04 C 643.12 477.70 643.14 502.35 643.12 527.00 C 639.98 527.00 636.84 527.00 633.71 526.99 C 633.69 507.99 633.71 488.99 633.70 469.99 C 633.51 454.65 634.08 439.28 633.43 423.96 Z" />
<path fill="#b0eaff" opacity="1.00" d=" M 131.49 435.12 C 135.63 437.89 138.80 441.84 141.90 445.67 C 152.06 462.14 153.20 484.28 143.16 501.06 C 141.19 504.67 137.95 507.38 135.97 510.97 C 139.80 521.48 144.84 531.53 149.15 541.85 C 150.56 545.64 152.49 549.82 151.20 553.91 C 149.57 558.45 145.10 561.01 140.97 562.94 C 136.84 564.87 132.41 566.33 127.81 566.30 C 123.18 564.93 119.87 561.21 118.22 556.78 C 122.61 556.93 126.92 555.75 130.85 553.85 C 134.90 551.88 139.33 549.59 141.40 545.36 C 143.32 541.32 141.37 536.87 139.95 533.01 C 135.43 522.42 130.55 511.99 126.28 501.31 C 131.77 495.36 136.46 488.49 138.59 480.60 C 142.95 465.34 140.60 448.23 131.49 435.12 Z" />
<path fill="#b0eaff" opacity="1.00" d=" M 65.02 447.91 C 72.99 447.85 80.96 447.85 88.93 447.89 C 95.57 447.96 103.03 451.66 105.10 458.35 C 95.01 456.44 84.65 457.73 74.44 457.41 C 74.34 465.68 74.48 473.95 74.36 482.23 C 71.25 482.26 68.13 482.26 65.02 482.20 C 64.97 470.77 64.96 459.34 65.02 447.91 Z" />
<path fill="#b0eaff" opacity="1.00" d=" M 746.84 463.97 C 751.96 464.66 755.92 468.82 756.32 473.99 C 756.72 499.01 756.37 524.04 756.50 549.06 C 756.44 553.84 756.17 559.85 751.64 562.67 C 745.82 565.68 738.94 565.12 732.64 564.49 C 727.64 563.87 723.78 560.06 722.95 555.13 C 728.89 555.95 735.19 556.07 740.89 553.97 C 746.05 552.09 747.00 545.81 747.04 541.02 C 747.11 520.01 747.05 499.00 747.07 477.99 C 747.07 473.32 747.52 468.62 746.84 463.97 Z" />
<path fill="#b0eaff" opacity="1.00" d=" M 527.84 469.89 C 532.12 472.01 534.92 476.16 537.75 479.85 C 542.66 490.17 544.25 501.68 544.28 513.02 C 544.30 525.67 544.36 538.32 544.26 550.97 C 544.27 555.79 542.72 561.77 537.64 563.53 C 531.95 565.30 525.77 565.42 519.93 564.33 C 515.14 563.71 511.55 559.80 510.95 555.08 C 516.88 555.54 523.18 556.14 528.85 553.89 C 534.03 551.53 534.94 545.07 534.89 540.01 C 534.83 526.67 535.02 513.33 534.76 500.00 C 534.52 489.62 532.65 479.17 527.84 469.89 Z" />
<path fill="#b0eaff" opacity="1.00" d=" M 963.50 469.87 C 967.98 471.76 970.26 476.59 973.62 479.90 C 975.67 484.06 977.06 489.48 973.25 493.14 C 966.26 500.42 957.94 506.30 950.48 513.09 C 947.00 510.22 943.52 507.38 940.09 504.48 C 946.46 499.06 952.87 493.67 959.24 488.23 C 962.08 485.66 965.23 482.92 966.24 479.06 C 967.03 475.72 965.15 472.60 963.50 469.87 Z" />
<path fill="#b0eaff" opacity="1.00" d=" M 854.51 471.95 C 858.42 474.74 861.52 478.49 864.62 482.12 C 870.37 490.97 873.68 501.37 873.81 511.94 C 873.95 524.98 873.91 538.02 873.85 551.06 C 873.81 555.57 872.66 561.12 868.05 563.10 C 862.21 565.26 855.70 565.25 849.64 564.11 C 847.51 563.48 845.38 562.67 843.59 561.34 C 841.59 559.77 841.07 557.15 840.25 554.89 C 846.08 556.05 852.27 555.72 857.96 554.00 C 863.28 552.23 864.45 545.94 864.44 541.04 C 864.44 528.03 864.56 515.01 864.38 501.99 C 864.06 491.32 860.80 480.63 854.51 471.95 Z" />
<path fill="#b0eaff" opacity="1.00" d=" M 247.53 474.07 C 251.14 476.51 253.94 479.93 256.77 483.19 C 261.54 490.11 264.46 498.13 265.61 506.44 C 265.98 503.57 266.35 500.71 266.70 497.85 C 266.39 502.29 266.86 506.74 266.82 511.19 C 266.09 514.61 265.77 518.09 265.47 521.58 C 263.72 535.96 255.11 549.05 243.41 557.37 C 231.09 565.62 215.31 568.88 200.84 565.30 C 194.42 563.95 188.58 560.86 182.88 557.75 C 179.27 554.72 175.72 551.52 172.85 547.77 C 178.61 551.19 184.58 554.44 191.18 555.92 C 205.50 559.36 221.11 556.39 233.41 548.37 C 246.65 539.32 255.80 524.12 256.49 507.97 C 257.31 496.05 254.21 483.99 247.53 474.07 Z" />
<path fill="#b0eaff" opacity="1.00" d=" M 366.29 477.37 C 366.91 477.72 368.17 478.41 368.80 478.75 C 370.65 480.28 372.27 482.08 373.73 484.00 C 379.90 493.78 382.91 505.41 382.19 516.97 C 381.62 533.35 372.34 548.82 358.86 557.92 C 346.60 565.77 331.14 568.83 316.93 565.26 C 310.48 563.91 304.66 560.73 298.93 557.61 C 296.51 555.80 294.48 553.54 292.38 551.39 C 292.69 551.17 293.31 550.71 293.62 550.49 C 311.34 560.72 334.71 559.21 351.23 547.27 C 364.74 537.37 373.38 520.89 372.84 504.03 C 373.03 494.71 370.16 485.73 366.29 477.37 Z" />
<path fill="#b0eaff" opacity="1.00" d=" M 186.57 494.58 C 191.25 486.75 201.91 483.14 210.40 486.56 C 214.94 488.33 218.98 491.62 220.99 496.15 C 213.80 493.76 205.47 494.53 199.66 499.72 C 193.42 504.60 193.09 513.36 194.36 520.54 C 184.06 517.01 181.99 503.30 186.57 494.58 Z" />
<path fill="#b0eaff" opacity="1.00" d=" M 313.27 486.36 C 322.10 483.09 333.10 487.36 337.14 495.93 C 332.92 495.21 328.54 494.15 324.30 495.36 C 318.72 496.95 313.22 500.64 311.24 506.33 C 309.41 511.03 310.06 516.16 310.77 521.02 C 308.42 519.54 305.86 518.20 304.16 515.94 C 300.15 510.81 299.86 503.63 301.55 497.57 C 303.12 492.04 308.08 488.28 313.27 486.36 Z" />
<path fill="#b0eaff" opacity="1.00" d=" M 423.09 491.11 C 426.19 487.21 432.06 486.89 436.39 488.68 C 439.64 490.11 441.37 493.45 442.34 496.69 C 439.09 497.20 435.29 497.27 432.96 499.97 C 429.59 503.77 429.09 509.13 429.02 513.99 C 428.95 526.32 429.11 538.65 428.97 550.98 C 428.85 555.29 428.05 560.64 423.76 562.79 C 417.95 565.62 411.19 565.14 404.95 564.49 C 402.82 563.97 400.71 563.22 398.91 561.96 C 396.71 560.27 396.17 557.36 395.21 554.92 C 401.80 555.43 409.03 556.52 415.03 553.04 C 418.92 550.47 419.46 545.30 419.57 541.03 C 419.66 529.01 419.55 516.99 419.59 504.98 C 419.72 500.22 420.01 495.00 423.09 491.11 Z" />
<path fill="#b0eaff" opacity="1.00" d=" M 480.30 491.36 C 483.26 487.30 489.23 486.83 493.64 488.46 C 497.22 489.75 499.10 493.34 500.14 496.77 C 496.67 497.19 492.54 497.16 490.15 500.15 C 487.10 504.05 486.91 509.27 486.74 514.01 C 486.67 526.35 486.82 538.70 486.69 551.05 C 486.69 555.75 485.20 561.44 480.39 563.35 C 474.80 565.34 468.68 565.24 462.86 564.59 C 460.58 563.97 458.23 563.21 456.40 561.67 C 454.41 559.99 453.86 557.35 453.04 555.01 C 458.96 555.57 465.22 556.10 470.92 554.00 C 475.64 552.13 477.22 546.60 477.26 541.97 C 477.44 529.30 477.22 516.64 477.34 503.97 C 477.48 499.66 477.80 495.03 480.30 491.36 Z" />
<path fill="#b0eaff" opacity="1.00" d=" M 801.17 492.23 C 809.05 484.04 825.57 486.28 829.43 497.57 C 824.51 496.85 819.18 496.28 814.63 498.72 C 809.27 501.30 805.92 507.10 805.98 513.01 C 805.71 526.04 806.13 539.08 805.81 552.11 C 805.63 556.50 803.94 561.70 799.42 563.34 C 793.74 565.24 787.55 565.14 781.69 564.21 C 779.27 563.65 776.75 562.80 775.00 560.97 C 773.71 559.20 773.11 557.05 772.33 555.04 C 778.17 555.90 784.30 555.78 789.96 553.98 C 794.79 552.24 796.30 546.55 796.42 541.94 C 796.62 529.26 796.34 516.58 796.54 503.90 C 796.58 499.62 798.06 495.26 801.17 492.23 Z" />
<path fill="#b0eaff" opacity="1.00" d=" M 65.11 516.47 C 75.24 516.47 85.37 516.63 95.49 516.27 C 96.82 519.45 98.13 522.64 99.46 525.83 C 91.11 526.02 82.75 525.68 74.40 526.04 C 74.31 534.70 74.58 543.36 74.30 552.02 C 74.19 556.62 72.25 562.02 67.41 563.48 C 61.74 565.17 55.58 565.30 49.82 564.00 C 45.37 563.11 40.78 559.85 41.04 554.84 C 46.91 555.29 53.14 556.03 58.75 553.79 C 62.94 552.08 64.63 547.31 64.85 543.12 C 65.25 534.24 64.75 525.35 65.11 516.47 Z" />
<path fill="#b0eaff" opacity="1.00" d=" M 913.93 523.88 C 917.28 526.68 920.46 529.67 923.65 532.66 C 922.92 539.76 923.75 546.91 923.05 554.01 C 922.70 557.69 921.07 561.79 917.37 563.24 C 911.53 565.55 905.00 565.25 898.91 564.27 C 894.05 563.76 890.69 559.74 889.78 555.15 C 895.81 555.93 902.19 556.09 907.95 553.88 C 912.04 552.36 913.38 547.66 913.75 543.73 C 914.11 537.12 913.79 530.50 913.93 523.88 Z" />
<path fill="#b0eaff" opacity="1.00" d=" M 973.10 533.77 C 976.57 536.42 979.96 539.34 982.41 543.01 C 983.21 549.32 979.20 554.84 975.44 559.49 C 972.67 562.54 969.39 565.98 965.01 566.22 C 960.92 565.96 957.46 563.46 953.92 561.65 C 948.91 557.66 943.93 553.40 939.93 548.38 C 944.07 551.56 948.29 554.96 953.35 556.51 C 958.28 557.81 962.46 553.87 965.53 550.55 C 969.46 545.83 973.65 540.27 973.10 533.77 Z" />
<path fill="#b0eaff" opacity="1.00" d=" M 700.41 537.04 C 705.48 536.69 709.50 541.00 709.66 545.92 C 710.07 550.93 710.42 556.38 708.02 560.98 C 705.56 564.39 700.88 564.85 697.01 565.00 C 675.67 565.02 654.34 564.98 633.00 565.01 C 628.07 565.01 623.06 565.25 618.23 564.06 C 613.60 563.25 610.19 559.60 609.23 555.07 C 611.43 555.46 613.67 555.63 615.92 555.66 C 639.95 555.57 663.99 555.67 688.02 555.61 C 691.96 555.45 696.90 554.79 698.96 550.94 C 700.86 546.59 700.78 541.67 700.41 537.04 Z" />
</g>
<g id="#61d4ffff">
<path fill="#61d4ff" opacity="1.00" d=" M 922.88 424.92 C 927.32 425.94 931.83 428.79 932.27 433.76 C 933.34 444.54 932.42 455.42 932.83 466.25 C 929.58 469.16 926.48 472.23 923.36 475.27 C 923.32 463.86 923.35 452.45 923.34 441.04 C 923.31 435.66 923.56 430.26 922.88 424.92 Z" />
<path fill="#61d4ff" opacity="1.00" d=" M 756.13 425.55 C 762.21 425.50 765.69 431.51 765.76 436.97 C 765.91 443.14 766.82 450.40 762.38 455.40 C 757.58 459.29 750.87 458.56 745.09 458.61 C 742.24 455.59 738.14 454.34 734.12 453.96 C 733.50 452.22 732.98 450.44 732.54 448.66 C 739.28 449.37 747.16 450.17 752.94 445.91 C 757.76 440.38 756.49 432.30 756.13 425.55 Z" />
<path fill="#61d4ff" opacity="1.00" d=" M 642.68 433.07 C 645.28 433.93 648.16 434.70 649.97 436.94 C 652.49 440.01 652.33 444.24 652.52 447.99 C 652.61 474.33 652.49 500.66 652.59 527.00 C 649.43 527.00 646.27 527.00 643.12 527.00 C 643.14 502.35 643.12 477.70 643.13 453.04 C 643.03 446.38 643.45 439.70 642.68 433.07 Z" />
<path fill="#61d4ff" opacity="1.00" d=" M 141.90 445.67 C 147.27 448.68 150.58 454.22 153.57 459.40 C 156.34 463.98 157.12 469.37 159.43 474.14 C 151.18 485.36 148.63 500.04 150.77 513.64 C 148.88 515.78 147.00 517.92 145.12 520.07 C 149.52 531.14 154.69 541.90 159.19 552.93 C 160.85 557.08 162.37 562.36 159.08 566.15 C 154.43 571.46 147.32 574.03 140.60 575.52 C 134.59 576.76 129.23 571.83 127.81 566.30 C 132.41 566.33 136.84 564.87 140.97 562.94 C 145.10 561.01 149.57 558.45 151.20 553.91 C 152.49 549.82 150.56 545.64 149.15 541.85 C 144.84 531.53 139.80 521.48 135.97 510.97 C 137.95 507.38 141.19 504.67 143.16 501.06 C 153.20 484.28 152.06 462.14 141.90 445.67 Z" />
<path fill="#61d4ff" opacity="1.00" d=" M 74.44 457.41 C 84.65 457.73 95.01 456.44 105.10 458.35 L 105.58 458.44 C 106.23 461.17 106.57 463.96 106.63 466.77 C 99.05 466.78 91.47 466.68 83.89 466.81 C 83.78 471.95 83.81 477.10 83.84 482.25 C 80.68 482.26 77.52 482.26 74.36 482.23 C 74.48 473.95 74.34 465.68 74.44 457.41 Z" />
<path fill="#61d4ff" opacity="1.00" d=" M 756.32 473.99 C 758.64 473.76 760.72 474.76 762.57 476.06 C 762.56 497.37 762.57 518.69 762.56 540.00 C 762.47 544.39 763.26 548.93 766.00 552.49 C 765.65 558.78 766.99 566.30 762.26 571.31 C 756.12 575.55 747.97 574.69 740.97 573.74 C 736.36 573.18 732.59 569.21 732.64 564.49 C 738.94 565.12 745.82 565.68 751.64 562.67 C 756.17 559.85 756.44 553.84 756.50 549.06 C 756.37 524.04 756.72 499.01 756.32 473.99 Z" />
<path fill="#61d4ff" opacity="1.00" d=" M 537.75 479.85 C 541.20 480.83 543.13 484.09 545.22 486.75 C 551.78 496.45 553.24 508.54 553.64 519.98 C 553.81 532.99 553.69 546.01 553.72 559.03 C 553.76 563.46 553.12 568.52 549.60 571.61 C 546.09 574.24 541.44 574.22 537.26 574.48 C 533.04 574.44 528.60 574.18 524.80 572.17 C 521.87 570.61 521.02 567.19 519.93 564.33 C 525.77 565.42 531.95 565.30 537.64 563.53 C 542.72 561.77 544.27 555.79 544.26 550.97 C 544.36 538.32 544.30 525.67 544.28 513.02 C 544.25 501.68 542.66 490.17 537.75 479.85 Z" />
<path fill="#61d4ff" opacity="1.00" d=" M 973.62 479.90 C 976.97 480.66 978.56 484.04 980.62 486.45 C 982.95 489.84 985.82 493.69 985.07 498.05 C 983.56 502.97 979.11 506.10 975.43 509.37 C 970.54 513.43 965.82 517.70 960.81 521.62 C 957.35 518.79 953.91 515.93 950.48 513.09 C 957.94 506.30 966.26 500.42 973.25 493.14 C 977.06 489.48 975.67 484.06 973.62 479.90 Z" />
<path fill="#61d4ff" opacity="1.00" d=" M 864.62 482.12 C 871.86 486.92 876.22 494.91 879.90 502.57 C 880.17 515.74 879.86 528.91 880.05 542.08 C 879.96 545.63 881.22 548.98 882.90 552.04 C 883.80 555.92 883.27 560.05 882.98 564.00 C 882.61 568.38 879.58 572.56 875.07 573.29 C 868.21 574.58 860.58 575.16 854.19 571.85 C 851.25 570.39 850.21 567.09 849.64 564.11 C 855.70 565.25 862.21 565.26 868.05 563.10 C 872.66 561.12 873.81 555.57 873.85 551.06 C 873.91 538.02 873.95 524.98 873.81 511.94 C 873.68 501.37 870.37 490.97 864.62 482.12 Z" />
<path fill="#61d4ff" opacity="1.00" d=" M 256.77 483.19 C 261.00 485.98 263.93 490.20 267.27 493.91 C 267.04 495.21 266.85 496.52 266.70 497.85 C 266.35 500.71 265.98 503.57 265.61 506.44 C 264.46 498.13 261.54 490.11 256.77 483.19 Z" />
<path fill="#61d4ff" opacity="1.00" d=" M 373.73 484.00 C 378.79 487.08 381.69 492.42 385.49 496.79 C 385.46 510.84 385.50 524.90 385.46 538.96 C 385.47 541.75 385.57 544.58 386.22 547.32 C 379.77 558.88 369.59 568.68 356.90 572.98 C 341.64 578.72 323.83 576.73 310.14 567.90 C 306.00 565.00 301.50 562.10 298.93 557.61 C 304.66 560.73 310.48 563.91 316.93 565.26 C 331.14 568.83 346.60 565.77 358.86 557.92 C 372.34 548.82 381.62 533.35 382.19 516.97 C 382.91 505.41 379.90 493.78 373.73 484.00 Z" />
<path fill="#61d4ff" opacity="1.00" d=" M 199.66 499.72 C 205.47 494.53 213.80 493.76 220.99 496.15 C 221.73 498.65 222.16 501.23 222.41 503.84 C 216.49 504.53 210.41 506.74 206.65 511.59 C 203.93 514.88 203.44 519.26 202.93 523.34 C 200.07 522.68 196.56 522.65 194.36 520.54 C 193.09 513.36 193.42 504.60 199.66 499.72 Z" />
<path fill="#61d4ff" opacity="1.00" d=" M 324.30 495.36 C 328.54 494.15 332.92 495.21 337.14 495.93 C 337.96 498.48 338.43 501.12 338.66 503.79 C 332.92 504.57 326.99 506.58 323.21 511.21 C 320.26 514.54 319.74 519.11 319.15 523.34 C 316.27 522.91 313.41 522.28 310.77 521.02 C 310.06 516.16 309.41 511.03 311.24 506.33 C 313.22 500.64 318.72 496.95 324.30 495.36 Z" />
<path fill="#61d4ff" opacity="1.00" d=" M 432.96 499.97 C 435.29 497.27 439.09 497.20 442.34 496.69 C 443.14 500.57 443.25 504.55 443.20 508.51 C 439.76 512.09 438.51 517.08 438.48 521.93 C 438.35 534.28 438.48 546.63 438.43 558.98 C 438.34 563.13 438.04 567.84 435.02 571.02 C 431.14 574.20 425.82 574.42 421.03 574.48 C 416.93 574.31 412.54 574.23 408.93 572.06 C 406.30 570.49 405.21 567.39 404.95 564.49 C 411.19 565.14 417.95 565.62 423.76 562.79 C 428.05 560.64 428.85 555.29 428.97 550.98 C 429.11 538.65 428.95 526.32 429.02 513.99 C 429.09 509.13 429.59 503.77 432.96 499.97 Z" />
<path fill="#61d4ff" opacity="1.00" d=" M 490.15 500.15 C 492.54 497.16 496.67 497.19 500.14 496.77 C 500.90 500.58 501.00 504.49 500.97 508.37 C 495.24 513.55 496.33 522.00 496.14 528.96 C 496.08 539.98 496.29 551.00 496.03 562.01 C 495.94 566.80 493.46 572.25 488.37 573.38 C 481.80 574.88 474.64 575.08 468.24 572.75 C 464.86 571.53 462.98 568.05 462.86 564.59 C 468.68 565.24 474.80 565.34 480.39 563.35 C 485.20 561.44 486.69 555.75 486.69 551.05 C 486.82 538.70 486.67 526.35 486.74 514.01 C 486.91 509.27 487.10 504.05 490.15 500.15 Z" />
<path fill="#61d4ff" opacity="1.00" d=" M 814.63 498.72 C 819.18 496.28 824.51 496.85 829.43 497.57 C 830.04 500.36 830.32 503.22 830.39 506.08 C 826.66 507.00 822.71 508.05 820.07 511.04 C 816.85 514.13 815.37 518.60 815.37 522.99 C 815.22 535.63 815.47 548.28 815.26 560.92 C 815.27 565.79 813.16 571.70 807.93 573.03 C 801.47 574.67 794.45 574.73 788.06 572.83 C 784.20 571.73 782.49 567.78 781.69 564.21 C 787.55 565.14 793.74 565.24 799.42 563.34 C 803.94 561.70 805.63 556.50 805.81 552.11 C 806.13 539.08 805.71 526.04 805.98 513.01 C 805.92 507.10 809.27 501.30 814.63 498.72 Z" />
<path fill="#61d4ff" opacity="1.00" d=" M 265.47 521.58 C 265.77 518.09 266.09 514.61 266.82 511.19 C 267.43 519.01 270.41 526.54 274.88 532.96 C 272.70 543.25 267.72 552.88 260.31 560.36 C 250.23 570.87 235.53 576.57 221.03 576.21 C 207.90 575.93 195.02 570.46 185.56 561.39 C 184.45 560.35 183.66 559.03 182.88 557.75 C 188.58 560.86 194.42 563.95 200.84 565.30 C 215.31 568.88 231.09 565.62 243.41 557.37 C 255.11 549.05 263.72 535.96 265.47 521.58 Z" />
<path fill="#61d4ff" opacity="1.00" d=" M 74.40 526.04 C 82.75 525.68 91.11 526.02 99.46 525.83 C 100.78 528.94 102.10 532.05 103.41 535.18 C 96.95 535.61 90.47 535.28 84.01 535.36 C 83.51 544.27 84.12 553.21 83.69 562.12 C 83.50 566.82 80.97 572.11 75.95 573.13 C 68.87 574.62 60.85 575.27 54.28 571.66 C 51.43 570.14 50.55 566.89 49.82 564.00 C 55.58 565.30 61.74 565.17 67.41 563.48 C 72.25 562.02 74.19 556.62 74.30 552.02 C 74.58 543.36 74.31 534.70 74.40 526.04 Z" />
<path fill="#61d4ff" opacity="1.00" d=" M 923.65 532.66 C 928.43 537.12 933.05 541.77 937.72 546.34 C 936.02 545.44 934.41 544.44 932.86 543.34 C 932.54 549.86 933.02 556.39 932.56 562.90 C 932.16 567.04 930.41 571.82 925.99 573.07 C 919.52 575.09 912.36 574.89 905.84 573.21 C 901.66 572.18 899.97 567.98 898.91 564.27 C 905.00 565.25 911.53 565.55 917.37 563.24 C 921.07 561.79 922.70 557.69 923.05 554.01 C 923.75 546.91 922.92 539.76 923.65 532.66 Z" />
<path fill="#61d4ff" opacity="1.00" d=" M 982.41 543.01 C 986.22 545.90 990.75 548.97 991.88 553.92 C 992.20 559.44 988.45 564.08 985.35 568.27 C 982.42 571.64 978.86 575.53 974.07 575.62 C 969.59 575.08 965.82 572.27 962.22 569.78 C 959.17 567.39 955.82 565.11 953.92 561.65 C 957.46 563.46 960.92 565.96 965.01 566.22 C 969.39 565.98 972.67 562.54 975.44 559.49 C 979.20 554.84 983.21 549.32 982.41 543.01 Z" />
<path fill="#61d4ff" opacity="1.00" d=" M 709.66 545.92 C 711.01 546.25 712.39 546.60 713.76 546.94 C 714.54 549.88 716.31 552.49 718.99 554.00 C 719.44 559.44 720.05 565.42 717.38 570.42 C 714.54 574.17 709.27 574.29 704.99 574.49 C 682.31 574.53 659.63 574.48 636.95 574.52 C 632.05 574.42 626.70 574.40 622.54 571.44 C 620.03 569.78 619.33 566.66 618.23 564.06 C 623.06 565.25 628.07 565.01 633.00 565.01 C 654.34 564.98 675.67 565.02 697.01 565.00 C 700.88 564.85 705.56 564.39 708.02 560.98 C 710.42 556.38 710.07 550.93 709.66 545.92 Z" />
</g>
</svg>
