<?xml version="1.0" encoding="UTF-8" ?>
<!DOCTYPE svg PUBLIC "-//W3C//DTD SVG 1.1//EN" "http://www.w3.org/Graphics/SVG/1.1/DTD/svg11.dtd">
<svg width="1000pt" height="1000pt" viewBox="0 0 1000 1000" version="1.1" xmlns="http://www.w3.org/2000/svg">
<g id="#1cc2ffff">
<path fill="#1cc2ff" opacity="1.00" d=" M 0.00 0.00 L 1000.00 0.00 L 1000.00 998.55 C 666.67 998.73 333.33 998.57 0.00 998.63 L 0.00 0.00 M 474.65 90.67 C 365.34 193.33 256.09 296.07 146.77 398.72 C 140.82 403.71 136.90 411.15 136.93 418.99 C 136.53 429.86 143.76 440.28 153.83 444.17 C 162.90 447.85 173.93 445.80 181.15 439.23 C 287.21 339.61 393.23 239.97 499.30 140.36 C 604.24 238.51 709.14 336.69 814.09 434.83 C 817.75 438.26 821.32 442.07 826.10 443.93 C 832.16 446.59 839.16 446.60 845.40 444.52 C 853.58 441.59 860.12 434.40 862.21 425.95 C 864.15 418.49 862.61 410.21 858.10 403.95 C 855.82 400.89 852.85 398.46 850.12 395.83 C 814.92 362.91 779.70 330.01 744.54 297.05 C 744.55 248.47 744.54 199.90 744.55 151.33 C 754.09 150.48 762.67 143.97 766.10 135.04 C 769.03 127.38 768.27 118.20 763.53 111.41 C 759.02 104.62 751.15 100.10 742.96 100.05 C 726.32 99.92 709.67 100.06 693.02 99.98 C 688.59 99.96 684.00 100.01 679.87 101.79 C 672.28 104.83 666.24 111.61 664.39 119.60 C 663.01 126.03 663.79 133.05 667.25 138.72 C 671.36 145.75 678.93 150.36 686.98 151.25 C 686.97 181.90 686.98 212.56 686.98 243.21 C 632.66 192.45 578.40 141.62 524.08 90.86 C 520.00 87.00 514.66 84.61 509.08 84.07 C 504.76 83.37 500.46 85.07 496.15 84.22 C 488.51 83.04 480.32 85.36 474.65 90.67 M 525.38 279.45 C 520.99 280.17 517.74 284.54 518.00 288.93 C 517.98 302.96 517.97 317.00 518.01 331.03 C 517.76 335.92 522.01 340.51 526.93 340.48 C 540.64 340.57 554.37 340.57 568.08 340.48 C 572.98 340.48 577.19 335.92 576.98 331.06 C 577.03 317.00 577.01 302.93 576.99 288.87 C 577.32 283.48 572.34 278.71 566.97 279.23 C 553.11 279.35 539.22 278.92 525.38 279.45 M 434.29 280.31 C 431.01 281.81 428.65 285.31 428.85 288.97 C 428.84 303.30 428.78 317.64 428.88 331.97 C 428.70 337.23 433.85 341.40 438.93 341.00 C 451.98 340.99 465.03 341.03 478.07 340.98 C 482.98 341.19 487.75 337.07 487.66 332.04 C 487.79 319.02 487.63 306.01 487.73 292.99 C 487.70 290.79 487.81 288.56 487.41 286.39 C 486.34 282.30 482.28 279.26 478.02 279.51 C 465.66 279.46 453.30 279.55 440.93 279.47 C 438.71 279.51 436.37 279.38 434.29 280.31 M 434.45 376.55 C 431.14 377.93 428.74 381.35 428.87 384.98 C 428.81 399.32 428.81 413.65 428.86 427.99 C 428.65 432.89 433.12 437.31 438.01 437.09 C 451.33 437.18 464.65 437.12 477.97 437.11 C 483.03 437.54 487.87 433.14 487.67 428.02 C 487.73 413.66 487.74 399.30 487.66 384.94 C 487.82 380.26 483.69 375.92 478.99 375.94 C 466.67 375.75 454.34 375.96 442.02 375.85 C 439.49 375.90 436.86 375.67 434.45 376.55 M 523.45 376.64 C 519.89 378.21 517.70 382.11 517.99 385.97 C 518.02 400.00 517.93 414.03 518.03 428.06 C 517.95 432.84 522.20 437.22 527.03 437.08 C 539.69 437.23 552.35 437.05 565.01 437.16 C 567.57 437.09 570.38 437.26 572.61 435.77 C 575.57 433.95 577.21 430.47 577.00 427.04 C 576.98 413.02 577.07 399.00 576.96 384.99 C 577.04 380.22 572.83 375.82 568.01 375.93 C 555.66 375.76 543.30 375.95 530.95 375.84 C 528.44 375.90 525.82 375.68 523.45 376.64 M 255.09 475.00 C 255.03 499.00 255.09 522.99 255.07 546.99 C 254.94 550.90 255.65 554.76 256.85 558.48 C 274.90 558.45 292.96 558.49 311.01 558.46 C 312.05 555.05 312.80 551.53 312.68 547.95 C 312.67 523.64 312.69 499.32 312.67 475.00 C 312.82 467.49 309.54 460.10 304.20 454.87 C 297.48 448.01 287.19 445.08 277.84 447.16 C 265.04 449.67 254.93 461.91 255.09 475.00 M 686.97 475.05 C 686.97 499.38 686.99 523.70 686.97 548.03 C 686.83 551.60 687.67 555.09 688.72 558.48 C 706.78 558.44 724.84 558.52 742.90 558.44 C 743.74 555.37 744.59 552.25 744.55 549.04 C 744.55 524.36 744.54 499.69 744.55 475.01 C 744.67 467.25 741.17 459.65 735.54 454.38 C 728.91 447.93 719.04 445.21 710.02 447.09 C 697.06 449.47 686.72 461.83 686.97 475.05 M 416.42 572.34 C 389.76 594.59 370.99 625.19 360.10 657.95 C 380.79 658.05 401.48 657.84 422.17 658.06 C 431.44 638.41 444.98 620.19 463.51 608.40 C 476.14 600.36 491.02 595.54 506.08 595.95 C 525.03 595.97 543.31 604.17 557.46 616.49 C 570.65 627.79 580.56 642.45 587.96 658.05 C 609.49 657.85 631.02 658.04 652.54 657.96 C 642.37 627.54 625.58 598.92 601.74 577.20 C 576.29 553.39 542.12 538.15 506.99 538.39 C 473.92 537.85 441.41 550.99 416.42 572.34 M 732.57 635.55 C 715.83 644.21 701.98 658.20 693.22 674.86 C 710.49 674.91 727.76 674.84 745.03 674.89 C 747.99 674.82 751.19 675.34 753.91 673.82 C 770.35 665.92 791.08 667.41 805.97 678.07 C 817.85 686.40 825.81 700.42 825.81 715.04 C 826.31 729.79 818.71 744.21 806.88 752.86 C 797.55 759.97 785.65 763.35 773.97 762.71 C 759.59 762.45 745.66 755.33 736.69 744.14 C 738.05 743.03 739.41 741.94 740.77 740.83 C 740.27 739.58 740.03 738.29 740.03 736.97 C 740.00 725.60 740.22 714.23 739.95 702.88 C 737.81 699.89 734.16 698.53 730.98 696.95 C 731.14 696.53 731.47 695.67 731.64 695.25 C 704.40 695.08 677.17 695.77 649.94 695.26 C 620.28 695.13 590.62 695.53 560.96 695.49 C 547.31 695.82 535.35 708.35 535.90 722.05 C 535.37 736.07 547.99 748.75 561.97 748.54 C 584.64 748.37 607.31 748.81 629.98 748.74 C 649.97 748.89 669.95 748.42 689.94 748.54 C 699.79 772.59 720.40 791.67 744.87 800.23 C 773.38 810.65 806.69 806.83 831.97 789.97 C 857.21 773.69 873.64 744.16 872.82 713.96 C 872.83 681.97 853.34 651.55 825.42 636.47 C 797.18 620.77 761.11 620.44 732.57 635.55 M 202.10 632.18 C 188.11 636.60 175.38 644.64 164.86 654.82 C 151.47 667.93 142.29 685.32 139.24 703.84 C 136.26 722.03 139.09 741.16 147.49 757.59 C 156.14 774.97 170.64 789.19 187.81 798.14 C 219.40 814.64 260.13 812.17 289.10 791.22 C 304.07 780.71 315.71 765.65 322.16 748.54 C 338.46 748.36 354.75 748.83 371.05 748.74 C 399.37 748.83 427.68 748.37 456.00 748.54 C 469.99 748.80 482.66 736.11 482.14 722.07 C 482.73 707.99 470.08 695.22 456.04 695.46 C 419.36 695.74 382.68 694.69 346.01 695.64 C 322.59 695.62 299.17 695.62 275.74 695.64 C 272.64 697.14 269.47 698.52 266.49 700.28 C 266.55 713.19 266.45 726.10 266.54 739.01 C 266.64 740.43 266.39 741.83 265.69 743.08 C 266.69 743.73 267.70 744.38 268.71 745.05 C 261.45 753.73 251.27 760.11 240.04 762.01 C 233.26 763.13 226.25 763.02 219.53 761.56 C 204.93 758.21 192.17 747.56 186.43 733.70 C 180.72 720.22 181.91 704.02 189.68 691.60 C 196.66 680.05 208.80 671.89 222.07 669.57 C 231.53 668.06 241.49 668.85 250.31 672.75 C 252.46 673.63 254.54 675.03 256.97 674.89 C 276.71 674.85 296.44 674.90 316.17 674.87 C 303.98 653.34 282.81 637.16 258.93 630.81 C 240.40 625.72 220.36 626.20 202.10 632.18 M 357.92 791.03 C 366.52 820.17 381.11 847.80 401.97 870.03 C 424.05 893.95 453.80 911.13 486.08 916.30 C 499.58 918.28 513.40 918.28 526.89 916.25 C 557.47 911.25 585.83 895.53 607.40 873.44 C 629.97 850.66 645.70 821.68 654.72 791.03 C 633.52 791.03 612.33 791.03 591.14 791.03 C 581.16 816.02 564.21 839.33 539.94 851.95 C 521.92 861.59 499.80 863.56 480.57 856.44 C 466.33 851.46 453.83 842.32 443.65 831.31 C 432.97 819.60 424.94 805.67 419.01 791.03 C 398.64 791.03 378.28 791.03 357.92 791.03 Z" />
</g>
<g id="#ffffffff">
<path fill="#ffffff" opacity="1.00" d=" M 474.65 90.67 C 480.32 85.36 488.51 83.04 496.15 84.22 C 500.46 85.07 504.76 83.37 509.08 84.07 C 514.66 84.61 520.00 87.00 524.08 90.86 C 578.40 141.62 632.66 192.45 686.98 243.21 C 686.98 212.56 686.97 181.90 686.98 151.25 C 678.93 150.36 671.36 145.75 667.25 138.72 C 663.79 133.05 663.01 126.03 664.39 119.60 C 666.24 111.61 672.28 104.83 679.87 101.79 C 684.00 100.01 688.59 99.96 693.02 99.98 C 709.67 100.06 726.32 99.92 742.96 100.05 C 751.15 100.10 759.02 104.62 763.53 111.41 C 768.27 118.20 769.03 127.38 766.10 135.04 C 762.67 143.97 754.09 150.48 744.55 151.33 C 744.54 199.90 744.55 248.47 744.54 297.05 C 779.70 330.01 814.92 362.91 850.12 395.83 C 852.85 398.46 855.82 400.89 858.10 403.95 C 862.61 410.21 864.15 418.49 862.21 425.95 C 860.12 434.40 853.58 441.59 845.40 444.52 C 839.16 446.60 832.16 446.59 826.10 443.93 C 821.32 442.07 817.75 438.26 814.09 434.83 C 709.14 336.69 604.24 238.51 499.30 140.36 C 393.23 239.97 287.21 339.61 181.15 439.23 C 173.93 445.80 162.90 447.85 153.83 444.17 C 143.76 440.28 136.53 429.86 136.93 418.99 C 136.90 411.15 140.82 403.71 146.77 398.72 C 256.09 296.07 365.34 193.33 474.65 90.67 Z" />
<path fill="#ffffff" opacity="1.00" d=" M 525.38 279.45 C 539.22 278.92 553.11 279.35 566.97 279.23 C 572.34 278.71 577.32 283.48 576.99 288.87 C 577.01 302.93 577.03 317.00 576.98 331.06 C 577.19 335.92 572.98 340.48 568.08 340.48 C 554.37 340.57 540.64 340.57 526.93 340.48 C 522.01 340.51 517.76 335.92 518.01 331.03 C 517.97 317.00 517.98 302.96 518.00 288.93 C 517.74 284.54 520.99 280.17 525.38 279.45 Z" />
<path fill="#ffffff" opacity="1.00" d=" M 434.29 280.31 C 436.37 279.38 438.71 279.51 440.93 279.47 C 453.30 279.55 465.66 279.46 478.02 279.51 C 482.28 279.26 486.34 282.30 487.41 286.39 C 487.81 288.56 487.70 290.79 487.73 292.99 C 487.63 306.01 487.79 319.02 487.66 332.04 C 487.75 337.07 482.98 341.19 478.07 340.98 C 465.03 341.03 451.98 340.99 438.93 341.00 C 433.85 341.40 428.70 337.23 428.88 331.97 C 428.78 317.64 428.84 303.30 428.85 288.97 C 428.65 285.31 431.01 281.81 434.29 280.31 Z" />
<path fill="#ffffff" opacity="1.00" d=" M 434.45 376.55 C 436.86 375.67 439.49 375.90 442.02 375.85 C 454.34 375.96 466.67 375.75 478.99 375.94 C 483.69 375.92 487.82 380.26 487.66 384.94 C 487.74 399.30 487.73 413.66 487.67 428.02 C 487.87 433.14 483.03 437.54 477.97 437.11 C 464.65 437.12 451.33 437.18 438.01 437.09 C 433.12 437.31 428.65 432.89 428.86 427.99 C 428.81 413.65 428.81 399.32 428.87 384.98 C 428.74 381.35 431.14 377.93 434.45 376.55 Z" />
<path fill="#ffffff" opacity="1.00" d=" M 523.45 376.64 C 525.82 375.68 528.44 375.90 530.95 375.84 C 543.30 375.95 555.66 375.76 568.01 375.93 C 572.83 375.82 577.04 380.22 576.96 384.99 C 577.07 399.00 576.98 413.02 577.00 427.04 C 577.21 430.47 575.57 433.95 572.61 435.77 C 570.38 437.26 567.57 437.09 565.01 437.16 C 552.35 437.05 539.69 437.23 527.03 437.08 C 522.20 437.22 517.95 432.84 518.03 428.06 C 517.93 414.03 518.02 400.00 517.99 385.97 C 517.70 382.11 519.89 378.21 523.45 376.64 Z" />
<path fill="#ffffff" opacity="1.00" d=" M 255.09 475.00 C 254.93 461.91 265.04 449.67 277.84 447.16 C 287.19 445.08 297.48 448.01 304.20 454.87 C 309.54 460.10 312.82 467.49 312.67 475.00 C 312.69 499.32 312.67 523.64 312.68 547.95 C 312.80 551.53 312.05 555.05 311.01 558.46 C 292.96 558.49 274.90 558.45 256.85 558.48 C 255.65 554.76 254.94 550.90 255.07 546.99 C 255.09 522.99 255.03 499.00 255.09 475.00 Z" />
<path fill="#ffffff" opacity="1.00" d=" M 686.97 475.05 C 686.72 461.83 697.06 449.47 710.02 447.09 C 719.04 445.21 728.91 447.93 735.54 454.38 C 741.17 459.65 744.67 467.25 744.55 475.01 C 744.54 499.69 744.55 524.36 744.55 549.04 C 744.59 552.25 743.74 555.37 742.90 558.44 C 724.84 558.52 706.78 558.44 688.72 558.48 C 687.67 555.09 686.83 551.60 686.97 548.03 C 686.99 523.70 686.97 499.38 686.97 475.05 Z" />
<path fill="#ffffff" opacity="1.00" d=" M 416.42 572.34 C 441.41 550.99 473.92 537.85 506.99 538.39 C 542.12 538.15 576.29 553.39 601.74 577.20 C 625.58 598.92 642.37 627.54 652.54 657.96 C 631.02 658.04 609.49 657.85 587.96 658.05 C 580.56 642.45 570.65 627.79 557.46 616.49 C 543.31 604.17 525.03 595.97 506.08 595.95 C 491.02 595.54 476.14 600.36 463.51 608.40 C 444.98 620.19 431.44 638.41 422.17 658.06 C 401.48 657.84 380.79 658.05 360.10 657.95 C 370.99 625.19 389.76 594.59 416.42 572.34 Z" />
<path fill="#ffffff" opacity="1.00" d=" M 732.57 635.55 C 761.11 620.44 797.18 620.77 825.42 636.47 C 853.34 651.55 872.83 681.97 872.82 713.96 C 873.64 744.16 857.21 773.69 831.97 789.97 C 806.69 806.83 773.38 810.65 744.87 800.23 C 720.40 791.67 699.79 772.59 689.94 748.54 C 669.95 748.42 649.97 748.89 629.98 748.74 C 607.31 748.81 584.64 748.37 561.97 748.54 C 547.99 748.75 535.37 736.07 535.90 722.05 C 535.35 708.35 547.31 695.82 560.96 695.49 C 590.62 695.53 620.28 695.13 649.94 695.26 C 677.17 695.77 704.40 695.08 731.64 695.25 C 731.47 695.67 731.14 696.53 730.98 696.95 C 734.16 698.53 737.81 699.89 739.95 702.88 C 740.22 714.23 740.00 725.60 740.03 736.97 C 740.03 738.29 740.27 739.58 740.77 740.83 C 739.41 741.94 738.05 743.03 736.69 744.14 C 745.66 755.33 759.59 762.45 773.97 762.71 C 785.65 763.35 797.55 759.97 806.88 752.86 C 818.71 744.21 826.31 729.79 825.81 715.04 C 825.81 700.42 817.85 686.40 805.97 678.07 C 791.08 667.41 770.35 665.92 753.91 673.82 C 751.19 675.34 747.99 674.82 745.03 674.89 C 727.76 674.84 710.49 674.91 693.22 674.86 C 701.98 658.20 715.83 644.21 732.57 635.55 Z" />
<path fill="#ffffff" opacity="1.00" d=" M 202.10 632.18 C 220.36 626.20 240.40 625.72 258.93 630.81 C 282.81 637.16 303.98 653.34 316.17 674.87 C 296.44 674.90 276.71 674.85 256.97 674.89 C 254.54 675.03 252.46 673.63 250.31 672.75 C 241.49 668.85 231.53 668.06 222.07 669.57 C 208.80 671.89 196.66 680.05 189.68 691.60 C 181.91 704.02 180.72 720.22 186.43 733.70 C 192.17 747.56 204.93 758.21 219.53 761.56 C 226.25 763.02 233.26 763.13 240.04 762.01 C 251.27 760.11 261.45 753.73 268.71 745.05 C 267.70 744.38 266.69 743.73 265.69 743.08 C 266.39 741.83 266.64 740.43 266.54 739.01 C 266.45 726.10 266.55 713.19 266.49 700.28 C 269.47 698.52 272.64 697.14 275.74 695.64 C 299.17 695.62 322.59 695.62 346.01 695.64 C 382.68 694.69 419.36 695.74 456.04 695.46 C 470.08 695.22 482.73 707.99 482.14 722.07 C 482.66 736.11 469.99 748.80 456.00 748.54 C 427.68 748.37 399.37 748.83 371.05 748.74 C 354.75 748.83 338.46 748.36 322.16 748.54 C 315.71 765.65 304.07 780.71 289.10 791.22 C 260.13 812.17 219.40 814.64 187.81 798.14 C 170.64 789.19 156.14 774.97 147.49 757.59 C 139.09 741.16 136.26 722.03 139.24 703.84 C 142.29 685.32 151.47 667.93 164.86 654.82 C 175.38 644.64 188.11 636.60 202.10 632.18 Z" />
<path fill="#ffffff" opacity="1.00" d=" M 357.92 791.03 C 378.28 791.03 398.64 791.03 419.01 791.03 C 424.94 805.67 432.97 819.60 443.65 831.31 C 453.83 842.32 466.33 851.46 480.57 856.44 C 499.80 863.56 521.92 861.59 539.94 851.95 C 564.21 839.33 581.16 816.02 591.14 791.03 C 612.33 791.03 633.52 791.03 654.72 791.03 C 645.70 821.68 629.97 850.66 607.40 873.44 C 585.83 895.53 557.47 911.25 526.89 916.25 C 513.40 918.28 499.58 918.28 486.08 916.30 C 453.80 911.13 424.05 893.95 401.97 870.03 C 381.11 847.80 366.52 820.17 357.92 791.03 Z" />
<path fill="#ffffff" opacity="1.00" d=" M 0.00 998.63 C 333.33 998.57 666.67 998.73 1000.00 998.55 L 1000.00 1000.00 L 0.00 1000.00 L 0.00 998.63 Z" />
</g>
</svg>
